<svg height="70.631584mm" viewBox="0 0 70.631478 70.631584" width="70.631477mm" xmlns="http://www.w3.org/2000/svg"><g fill="none" stroke="#fff"><path d="m35.315892 27.01422c4.454196.000164 8.064931 3.716943 8.064889 8.301732-.000127 4.584664-3.610813 8.301248-8.064889 8.301412-4.45419.000012-8.065069-3.716622-8.065197-8.301412-.000044-4.584918 3.610885-8.301744 8.065197-8.301732z" stroke-width="6.82351"/><path d="m35.270179 3.3078118c-2.323178 0-4.645494.15195-5.142322.45578-3.029794 3.39985-2.197814 9.6826602-2.197814 13.7810702-2.888391-2.50671-6.813704-8.5224502-11.316071-8.2084102-.566158.13647-2.316195 1.6712802-3.958931 3.3140102-1.642728 1.64274-3.1783673 3.39361-3.3176273 3.96255.205717 4.59745 5.1685823 8.39826 8.0873623 11.31704-3.701324.0815-10.7069463-.7923-13.6616983 2.19811-.30383.49683-.455786 2.81916-.455786 5.14232 0 2.32318.151956 4.64724.455786 5.14801 3.396411 3.10556 9.5943663 2.28345 13.7221603 2.28345-2.56135 2.67974-8.1741163 7.04099-8.1488913 11.25654.136472.56616 1.6712763 2.31569 3.3140103 3.95841 1.642732 1.64273 3.393611 3.17889 3.962549 3.31815 4.597412-.20569 8.398393-5.16872 11.317137-8.08746.08364 3.70638-.801138 10.7579 2.197814 13.72112.496828.30383 2.819144.45579 5.142322.45579 2.323175 0 4.647235-.15196 5.148005-.45579 3.09688-3.38411 2.28345-9.54563 2.28345-13.66273 2.71208 2.61504 6.97153 8.08197 11.25812 8.02907.56894-.13926 2.31981-1.67541 3.96255-3.31815 1.64274-1.64272 3.17702-3.39225 3.31349-3.95841-.25856-4.53204-5.25778-8.36637-8.14847-11.25706 3.78066-.0735 10.76635.80683 13.78107-2.28345.30383-.50077.45579-2.82483.45579-5.14801 0-2.32316-.15196-4.64549-.45579-5.14232-3.38749-3.02138-9.63312-2.19811-13.72112-2.19811 2.61883-2.71987 8.14074-7.01269 8.08746-11.31704-.13926-.56894-1.67489-2.31981-3.31763-3.96255s-3.39225-3.1770202-3.95841-3.3134902c-4.53204.25856-8.36637 5.2577802-11.25706 8.1484702-.0715-3.77512.79798-10.7155602-2.28345-13.7216502-.50077-.30383-2.82483-.45578-5.148005-.45578z" stroke-linejoin="bevel" stroke-width="6.61458"/></g></svg>